{
  "title": "Interstellar.2014.1080p.BluRay.H264.AAC-RARBG",
  "uid": 11764043,
  "size": 3464357086,
  "categoryP": "video",
  "categoryS": "hd___movies",
  "magnet": "?xt=urn:btih:7e73ef6fa1f2c495720d268794c55d020d8b4fcb&amp;dn=Interstellar.2014.1080p.BluRay.H264.AAC-RARBG&amp;tr=udp%3A%2F%2Ftracker.openbittorrent.com%3A80&amp;tr=udp%3A%2F%2Fopen.demonii.com%3A1337&amp;tr=udp%3A%2F%2Ftracker.coppersurfer.tk%3A6969&amp;tr=udp%3A%2F%2Fexodus.desync.com%3A6969",
  "seeders": 1053,
  "leechers": 220,
  "uploader": "vickey1992",
  "files": 5,
  "time": 1426677102,
  "description": " &lt;a href=&quot;http://rarbg.com/&quot; rel=&quot;nofollow&quot; target=&quot;_NEW&quot;&gt;http://rarbg.com/&lt;/a&gt;\n\n &lt;a href=&quot;\nhttp://www.imdb.com/title/tt0816692/&quot; rel=&quot;nofollow&quot; target=&quot;_NEW&quot;&gt;\nhttp://www.imdb.com/title/tt0816692/&lt;/a&gt;\n\n[mediainfo]\nVideo\nID : 1\nFormat : AVC\nFormat/Info : Advanced Video Codec\nFormat profile : &lt;a class=&quot;__cf_email__&quot; href=&quot;/cdn-cgi/l/email-protection&quot; data-cfemail=&quot;5018393738101c647e61&quot;&gt;[email&amp;#160;protected]&lt;/a&gt;&lt;script cf-hash='f9e31' type=&quot;text/javascript&quot;&gt;\n/* &lt;![CDATA[ */!function(){try{var t=&quot;currentScript&quot;in document?document.currentScript:function(){for(var t=document.getElementsByTagName(&quot;script&quot;),e=t.length;e--;)if(t[e].getAttribute(&quot;cf-hash&quot;))return t[e]}();if(t&amp;&amp;t.previousSibling){var e,r,n,i,c=t.previousSibling,a=c.getAttribute(&quot;data-cfemail&quot;);if(a){for(e=&quot;&quot;,r=parseInt(a.substr(0,2),16),n=2;a.length-n;n+=2)i=parseInt(a.substr(n,2),16)^r,e+=String.fromCharCode(i);e=document.createTextNode(e),c.parentNode.replaceChild(e,c)}}}catch(u){}}();/* ]]&gt; */&lt;/script&gt;\nFormat settings, CABAC : Yes\nFormat settings, ReFrames : 4 frames\nCodec ID : avc1\nCodec ID/Info : Advanced Video Coding\nDuration : 2h 49mn\nBit rate : 2 500 Kbps\nWidth : 1 920 pixels\nHeight : 1 080 pixels\nDisplay aspect ratio : 16:9\nFrame rate mode : Constant\nFrame rate : 23.976 fps\nColor space : YUV\nChroma subsampling : 4:2:0\nBit depth : 8 bits\nScan type : Progressive\nBits/(Pixel*Frame) : 0.050\nStream size : 2.95 GiB (92%)\nWriting library : x264 core 144 r2525M 40bb568\nEncoding settings : cabac=1 / ref=4 / deblock=1:-1:-1 / analyse=0x3:0x113 / me=umh / subme=9 / psy=1 / psy_rd=1.00:0.15 / mixed_ref=1 / me_range=24 / chroma_me=1 / trellis=2 / 8x8dct=1 / cqm=0 / deadzone=21,11 / fast_pskip=1 / chroma_qp_offset=-3 / threads=32 / lookahead_threads=4 / sliced_threads=0 / nr=0 / decimate=1 / interlaced=0 / bluray_compat=0 / constrained_intra=0 / bframes=3 / b_pyramid=2 / b_adapt=1 / b_bias=0 / direct=1 / weightb=1 / open_gop=0 / weightp=2 / keyint=250 / keyint_min=25 / scenecut=40 / intra_refresh=0 / rc_lookahead=50 / rc=2pass / mbtree=1 / bitrate=2500 / ratetol=1.0 / qcomp=0.60 / qpmin=0 / qpmax=69 / qpstep=4 / cplxblur=20.0 / qblur=0.5 / vbv_maxrate=31250 / vbv_bufsize=31250 / nal_hrd=none / filler=0 / ip_ratio=1.40 / aq=3:1.00\nEncoded date : UTC 1904-01-01 00:00:00\nTagged date : UTC 1904-01-01 00:00:00\n\nAudio\nID : 2\nFormat : AAC\nFormat/Info : Advanced Audio Codec\nFormat profile : LC\nCodec ID : 40\nDuration : 2h 49mn\nBit rate mode : Constant\nBit rate : 224 Kbps\nChannel(s) : 2 channels\nChannel(s)_Original : 6 channels\nChannel positions : Front: L C R, Side: L R, LFE\nSampling rate : 48.0 KHz\nCompression mode : Lossy\nStream size : 271 MiB (8%)\nLanguage : English\nEncoded date : UTC 1904-01-01 00:00:00\nTagged date : UTC 1904-01-01 00:00:00\n\nMenu #1\nID : 3\nCodec ID : text\nDuration : 2h 49mn\nLanguage : English\nEncoded date : UTC 1904-01-01 00:00:00\nTagged date : UTC 1904-01-01 00:00:00\nBit rate mode : CBR\n00:00:00.000 : Chapter 01\n00:09:35.243 : Chapter 02\n00:17:12.241 : Chapter 03\n00:25:00.668 : Chapter 04\n00:35:45.061 : Chapter 05\n00:42:16.786 : Chapter 06\n00:50:19.518 : Chapter 07\n00:54:47.745 : Chapter 08\n00:58:59.329 : Chapter 09\n01:06:14.931 : Chapter 10\n01:17:27.978 : Chapter 11\n01:25:31.920 : Chapter 12\n01:34:31.918 : Chapter 13\n01:46:14.620 : Chapter 14\n01:55:34.471 : Chapter 15\n02:02:14.287 : Chapter 16\n02:12:56.762 : Chapter 17\n02:20:53.739 : Chapter 18\n02:35:12.013 : Chapter 19\n02:43:59.790 : Chapter 20\n\nMenu #2\n00:00:00.043 : Chapter 01\n00:09:35.243 : Chapter 02\n00:17:12.241 : Chapter 03\n00:25:00.668 : Chapter 04\n00:35:45.061 : Chapter 05\n00:42:16.786 : Chapter 06\n00:50:19.518 : Chapter 07\n00:54:47.745 : Chapter 08\n00:58:59.329 : Chapter 09\n01:06:14.931 : Chapter 10\n01:17:27.978 : Chapter 11\n01:25:31.920 : Chapter 12\n01:34:31.918 : Chapter 13\n01:46:14.620 : Chapter 14\n01:55:34.471 : Chapter 15\n02:02:14.287 : Chapter 16\n02:12:56.762 : Chapter 17\n02:20:53.739 : Chapter 18\n02:35:12.013 : Chapter 19\n02:43:59.790 : Chapter 20",
  "parsed": {
    "xt": "urn:btih:7e73ef6fa1f2c495720d268794c55d020d8b4fcb",
    "dn": "Interstellar.2014.1080p.BluRay.H264.AAC-RARBG",
    "tr": [
      "udp://exodus.desync.com:6969",
      "udp://open.demonii.com:1337",
      "udp://tracker.coppersurfer.tk:6969",
      "udp://tracker.openbittorrent.com:80"
    ],
    "infoHash": "7e73ef6fa1f2c495720d268794c55d020d8b4fcb",
    "infoHashBuffer": {
      "type": "Buffer",
      "data": [
        126,
        115,
        239,
        111,
        161,
        242,
        196,
        149,
        114,
        13,
        38,
        135,
        148,
        197,
        93,
        2,
        13,
        139,
        79,
        203
      ]
    },
    "name": "Interstellar.2014.1080p.BluRay.H264.AAC-RARBG",
    "announce": [
      "udp://exodus.desync.com:6969",
      "udp://open.demonii.com:1337",
      "udp://tracker.coppersurfer.tk:6969",
      "udp://tracker.openbittorrent.com:80"
    ],
    "urlList": []
  },
  "previous": 1273,
  "peers": 50,
  "last_updated": "2016-12-25T05:53:04.338Z"
}